<mxfile host="app.diagrams.net" modified="2023-04-04T08:40:39.222Z" agent="5.0 (Windows NT 10.0; Win64; x64) AppleWebKit/537.36 (KHTML, like Gecko) Chrome/110.0.0.0 Safari/537.36" etag="PDNKvOLDvPvHRoc6Fkp3" version="21.0.8" type="github">
  <diagram name="第 1 页" id="jmBodiYtfY0lOfKNEeYn">
    <mxGraphModel dx="2261" dy="1877" grid="1" gridSize="10" guides="1" tooltips="1" connect="1" arrows="1" fold="1" page="1" pageScale="1" pageWidth="827" pageHeight="1169" math="0" shadow="0">
      <root>
        <mxCell id="0" />
        <mxCell id="1" parent="0" />
        <mxCell id="Mc5ecyZFv2LdiAkJAyB8-1" value="" style="rounded=0;whiteSpace=wrap;html=1;" vertex="1" parent="1">
          <mxGeometry y="60" width="860" height="540" as="geometry" />
        </mxCell>
        <mxCell id="Mc5ecyZFv2LdiAkJAyB8-2" value="" style="rounded=0;whiteSpace=wrap;html=1;" vertex="1" parent="1">
          <mxGeometry y="610" width="860" height="90" as="geometry" />
        </mxCell>
        <mxCell id="Mc5ecyZFv2LdiAkJAyB8-3" value="" style="rounded=0;whiteSpace=wrap;html=1;dashed=1;" vertex="1" parent="1">
          <mxGeometry x="450" y="140" width="320" height="450" as="geometry" />
        </mxCell>
        <mxCell id="Mc5ecyZFv2LdiAkJAyB8-4" style="edgeStyle=orthogonalEdgeStyle;rounded=0;orthogonalLoop=1;jettySize=auto;html=1;entryX=0.083;entryY=-0.133;entryDx=0;entryDy=0;exitX=0.5;exitY=1;exitDx=0;exitDy=0;entryPerimeter=0;" edge="1" parent="1" target="Mc5ecyZFv2LdiAkJAyB8-28">
          <mxGeometry relative="1" as="geometry">
            <mxPoint x="660" y="510" as="sourcePoint" />
            <mxPoint x="660" y="660" as="targetPoint" />
          </mxGeometry>
        </mxCell>
        <mxCell id="Mc5ecyZFv2LdiAkJAyB8-5" value="" style="rounded=0;whiteSpace=wrap;html=1;dashed=1;" vertex="1" parent="1">
          <mxGeometry x="100" y="140" width="260" height="450" as="geometry" />
        </mxCell>
        <mxCell id="Mc5ecyZFv2LdiAkJAyB8-6" value="Elastic Search" style="shape=cylinder3;whiteSpace=wrap;html=1;boundedLbl=1;backgroundOutline=1;size=15;" vertex="1" parent="1">
          <mxGeometry x="190" y="433" width="60" height="80" as="geometry" />
        </mxCell>
        <mxCell id="Mc5ecyZFv2LdiAkJAyB8-9" value="测试平台后台服务" style="rounded=0;whiteSpace=wrap;html=1;" vertex="1" parent="1">
          <mxGeometry x="469" y="280" width="280" height="30" as="geometry" />
        </mxCell>
        <mxCell id="Mc5ecyZFv2LdiAkJAyB8-10" value="测试平台前端WEB" style="rounded=0;whiteSpace=wrap;html=1;" vertex="1" parent="1">
          <mxGeometry x="469" y="180" width="280" height="30" as="geometry" />
        </mxCell>
        <mxCell id="Mc5ecyZFv2LdiAkJAyB8-11" value="测试平台" style="text;html=1;strokeColor=none;fillColor=none;align=center;verticalAlign=middle;whiteSpace=wrap;rounded=0;" vertex="1" parent="1">
          <mxGeometry x="575" y="150" width="60" height="30" as="geometry" />
        </mxCell>
        <mxCell id="Mc5ecyZFv2LdiAkJAyB8-12" value="EI云端系统" style="text;html=1;strokeColor=none;fillColor=none;align=center;verticalAlign=middle;whiteSpace=wrap;rounded=0;" vertex="1" parent="1">
          <mxGeometry x="380" y="70" width="130" height="30" as="geometry" />
        </mxCell>
        <mxCell id="Mc5ecyZFv2LdiAkJAyB8-13" value="" style="rounded=0;whiteSpace=wrap;html=1;" vertex="1" parent="1">
          <mxGeometry x="145" y="217.5" width="120" height="60" as="geometry" />
        </mxCell>
        <mxCell id="Mc5ecyZFv2LdiAkJAyB8-14" value="" style="rounded=0;whiteSpace=wrap;html=1;" vertex="1" parent="1">
          <mxGeometry x="155" y="242.5" width="120" height="60" as="geometry" />
        </mxCell>
        <mxCell id="Mc5ecyZFv2LdiAkJAyB8-16" value="EI云端其他业务平台" style="text;html=1;strokeColor=none;fillColor=none;align=center;verticalAlign=middle;whiteSpace=wrap;rounded=0;" vertex="1" parent="1">
          <mxGeometry x="140" y="150" width="130" height="30" as="geometry" />
        </mxCell>
        <mxCell id="Mc5ecyZFv2LdiAkJAyB8-17" value="读取日志" style="text;html=1;strokeColor=none;fillColor=none;align=center;verticalAlign=middle;whiteSpace=wrap;rounded=0;" vertex="1" parent="1">
          <mxGeometry x="360" y="440" width="60" height="30" as="geometry" />
        </mxCell>
        <mxCell id="Mc5ecyZFv2LdiAkJAyB8-18" value="测试平台网关" style="rounded=0;whiteSpace=wrap;html=1;" vertex="1" parent="1">
          <mxGeometry x="469" y="230" width="280" height="30" as="geometry" />
        </mxCell>
        <mxCell id="Mc5ecyZFv2LdiAkJAyB8-19" value="" style="endArrow=classic;html=1;rounded=0;entryX=0.5;entryY=0;entryDx=0;entryDy=0;exitX=0.146;exitY=1.033;exitDx=0;exitDy=0;exitPerimeter=0;" edge="1" parent="1" source="Mc5ecyZFv2LdiAkJAyB8-9">
          <mxGeometry width="50" height="50" relative="1" as="geometry">
            <mxPoint x="470" y="370" as="sourcePoint" />
            <mxPoint x="510" y="450" as="targetPoint" />
          </mxGeometry>
        </mxCell>
        <mxCell id="Mc5ecyZFv2LdiAkJAyB8-20" value="" style="endArrow=classic;html=1;rounded=0;entryX=0.5;entryY=0;entryDx=0;entryDy=0;" edge="1" parent="1">
          <mxGeometry width="50" height="50" relative="1" as="geometry">
            <mxPoint x="660" y="310" as="sourcePoint" />
            <mxPoint x="659.5" y="450" as="targetPoint" />
          </mxGeometry>
        </mxCell>
        <mxCell id="Mc5ecyZFv2LdiAkJAyB8-21" value="" style="endArrow=classic;html=1;rounded=0;exitX=0;exitY=0.5;exitDx=0;exitDy=0;entryX=1.05;entryY=0.588;entryDx=0;entryDy=0;entryPerimeter=0;" edge="1" parent="1" target="Mc5ecyZFv2LdiAkJAyB8-6">
          <mxGeometry width="50" height="50" relative="1" as="geometry">
            <mxPoint x="450" y="480" as="sourcePoint" />
            <mxPoint x="270" y="480" as="targetPoint" />
          </mxGeometry>
        </mxCell>
        <mxCell id="Mc5ecyZFv2LdiAkJAyB8-22" value="" style="endArrow=classic;html=1;rounded=0;exitX=0;exitY=0.5;exitDx=0;exitDy=0;entryX=1.017;entryY=0.408;entryDx=0;entryDy=0;entryPerimeter=0;" edge="1" parent="1" source="Mc5ecyZFv2LdiAkJAyB8-9" target="Mc5ecyZFv2LdiAkJAyB8-47">
          <mxGeometry width="50" height="50" relative="1" as="geometry">
            <mxPoint x="460" y="290" as="sourcePoint" />
            <mxPoint x="350" y="295" as="targetPoint" />
          </mxGeometry>
        </mxCell>
        <mxCell id="Mc5ecyZFv2LdiAkJAyB8-23" value="dev" style="rounded=0;whiteSpace=wrap;html=1;dashed=1;" vertex="1" parent="1">
          <mxGeometry x="40" y="639" width="120" height="30" as="geometry" />
        </mxCell>
        <mxCell id="Mc5ecyZFv2LdiAkJAyB8-24" value="test" style="rounded=0;whiteSpace=wrap;html=1;dashed=1;" vertex="1" parent="1">
          <mxGeometry x="190" y="640" width="120" height="30" as="geometry" />
        </mxCell>
        <mxCell id="Mc5ecyZFv2LdiAkJAyB8-25" value="uat" style="rounded=0;whiteSpace=wrap;html=1;dashed=1;" vertex="1" parent="1">
          <mxGeometry x="330" y="640" width="120" height="30" as="geometry" />
        </mxCell>
        <mxCell id="Mc5ecyZFv2LdiAkJAyB8-26" value="prod" style="rounded=0;whiteSpace=wrap;html=1;dashed=1;" vertex="1" parent="1">
          <mxGeometry x="490" y="639" width="120" height="30" as="geometry" />
        </mxCell>
        <mxCell id="Mc5ecyZFv2LdiAkJAyB8-27" style="edgeStyle=orthogonalEdgeStyle;rounded=0;orthogonalLoop=1;jettySize=auto;html=1;exitX=0.5;exitY=1;exitDx=0;exitDy=0;" edge="1" parent="1" source="Mc5ecyZFv2LdiAkJAyB8-24" target="Mc5ecyZFv2LdiAkJAyB8-24">
          <mxGeometry relative="1" as="geometry" />
        </mxCell>
        <mxCell id="Mc5ecyZFv2LdiAkJAyB8-28" value="应用部署环境" style="rounded=0;whiteSpace=wrap;html=1;dashed=1;" vertex="1" parent="1">
          <mxGeometry x="650" y="639" width="120" height="30" as="geometry" />
        </mxCell>
        <mxCell id="Mc5ecyZFv2LdiAkJAyB8-29" value="" style="endArrow=classic;html=1;rounded=0;exitX=0.5;exitY=1;exitDx=0;exitDy=0;" edge="1" parent="1" source="Mc5ecyZFv2LdiAkJAyB8-10" target="Mc5ecyZFv2LdiAkJAyB8-18">
          <mxGeometry width="50" height="50" relative="1" as="geometry">
            <mxPoint x="590" y="220" as="sourcePoint" />
            <mxPoint x="640" y="170" as="targetPoint" />
          </mxGeometry>
        </mxCell>
        <mxCell id="Mc5ecyZFv2LdiAkJAyB8-30" value="" style="endArrow=classic;html=1;rounded=0;exitX=0.5;exitY=1;exitDx=0;exitDy=0;" edge="1" parent="1">
          <mxGeometry width="50" height="50" relative="1" as="geometry">
            <mxPoint x="600" y="257" as="sourcePoint" />
            <mxPoint x="600" y="277" as="targetPoint" />
          </mxGeometry>
        </mxCell>
        <mxCell id="Mc5ecyZFv2LdiAkJAyB8-31" value="应用部署" style="text;html=1;strokeColor=none;fillColor=none;align=center;verticalAlign=middle;whiteSpace=wrap;rounded=0;" vertex="1" parent="1">
          <mxGeometry x="660" y="555" width="60" height="30" as="geometry" />
        </mxCell>
        <mxCell id="Mc5ecyZFv2LdiAkJAyB8-32" value="&lt;br&gt;消息模拟推送" style="text;html=1;strokeColor=none;fillColor=none;align=center;verticalAlign=middle;whiteSpace=wrap;rounded=0;" vertex="1" parent="1">
          <mxGeometry x="370" y="260" width="80" height="30" as="geometry" />
        </mxCell>
        <mxCell id="Mc5ecyZFv2LdiAkJAyB8-33" value="ES API" style="ellipse;whiteSpace=wrap;html=1;fillColor=#FFFFFF;" vertex="1" parent="1">
          <mxGeometry x="457" y="448" width="120" height="50" as="geometry" />
        </mxCell>
        <mxCell id="Mc5ecyZFv2LdiAkJAyB8-34" value="Jenkins API" style="ellipse;whiteSpace=wrap;html=1;fillColor=#FFFFFF;" vertex="1" parent="1">
          <mxGeometry x="600" y="450" width="120" height="50" as="geometry" />
        </mxCell>
        <mxCell id="Mc5ecyZFv2LdiAkJAyB8-35" value="Redis" style="shape=cylinder3;whiteSpace=wrap;html=1;boundedLbl=1;backgroundOutline=1;size=15;" vertex="1" parent="1">
          <mxGeometry x="689" y="350" width="60" height="80" as="geometry" />
        </mxCell>
        <mxCell id="Mc5ecyZFv2LdiAkJAyB8-36" value="MySQL" style="shape=cylinder3;whiteSpace=wrap;html=1;boundedLbl=1;backgroundOutline=1;size=15;" vertex="1" parent="1">
          <mxGeometry x="550" y="350" width="60" height="80" as="geometry" />
        </mxCell>
        <mxCell id="Mc5ecyZFv2LdiAkJAyB8-37" value="" style="endArrow=classic;html=1;rounded=0;entryX=0.5;entryY=0;entryDx=0;entryDy=0;entryPerimeter=0;" edge="1" parent="1" target="Mc5ecyZFv2LdiAkJAyB8-36">
          <mxGeometry width="50" height="50" relative="1" as="geometry">
            <mxPoint x="580" y="310" as="sourcePoint" />
            <mxPoint x="580" y="340" as="targetPoint" />
          </mxGeometry>
        </mxCell>
        <mxCell id="Mc5ecyZFv2LdiAkJAyB8-38" value="" style="endArrow=classic;html=1;rounded=0;exitX=0.871;exitY=1;exitDx=0;exitDy=0;exitPerimeter=0;" edge="1" parent="1" source="Mc5ecyZFv2LdiAkJAyB8-9">
          <mxGeometry width="50" height="50" relative="1" as="geometry">
            <mxPoint x="587.04" y="320.99" as="sourcePoint" />
            <mxPoint x="713" y="350" as="targetPoint" />
          </mxGeometry>
        </mxCell>
        <mxCell id="Mc5ecyZFv2LdiAkJAyB8-39" value="" style="sketch=0;aspect=fixed;pointerEvents=1;shadow=0;dashed=0;html=1;strokeColor=none;labelPosition=center;verticalLabelPosition=bottom;verticalAlign=top;align=center;fillColor=#7EA6E0;shape=mxgraph.azure.user" vertex="1" parent="1">
          <mxGeometry x="495" y="-50" width="47" height="50" as="geometry" />
        </mxCell>
        <mxCell id="Mc5ecyZFv2LdiAkJAyB8-40" value="" style="endArrow=classic;html=1;rounded=0;entryX=0.214;entryY=0.067;entryDx=0;entryDy=0;entryPerimeter=0;exitX=0.681;exitY=1.08;exitDx=0;exitDy=0;exitPerimeter=0;" edge="1" parent="1" target="Mc5ecyZFv2LdiAkJAyB8-10" source="Mc5ecyZFv2LdiAkJAyB8-39">
          <mxGeometry width="50" height="50" relative="1" as="geometry">
            <mxPoint x="520" y="10" as="sourcePoint" />
            <mxPoint x="640" y="-60" as="targetPoint" />
          </mxGeometry>
        </mxCell>
        <mxCell id="Mc5ecyZFv2LdiAkJAyB8-41" value="" style="sketch=0;aspect=fixed;pointerEvents=1;shadow=0;dashed=0;html=1;strokeColor=none;labelPosition=center;verticalLabelPosition=bottom;verticalAlign=top;align=center;fillColor=#7EA6E0;shape=mxgraph.mscae.enterprise.device" vertex="1" parent="1">
          <mxGeometry x="-110" y="377" width="50" height="26" as="geometry" />
        </mxCell>
        <mxCell id="Mc5ecyZFv2LdiAkJAyB8-42" value="网关" style="rounded=0;whiteSpace=wrap;html=1;dashed=1;fillColor=#FFFFFF;" vertex="1" parent="1">
          <mxGeometry x="10" y="140" width="60" height="450" as="geometry" />
        </mxCell>
        <mxCell id="Mc5ecyZFv2LdiAkJAyB8-43" value="EI设备" style="text;html=1;strokeColor=none;fillColor=none;align=center;verticalAlign=middle;whiteSpace=wrap;rounded=0;" vertex="1" parent="1">
          <mxGeometry x="-120" y="335" width="60" height="30" as="geometry" />
        </mxCell>
        <mxCell id="Mc5ecyZFv2LdiAkJAyB8-46" value="测试用户" style="text;html=1;strokeColor=none;fillColor=none;align=center;verticalAlign=middle;whiteSpace=wrap;rounded=0;" vertex="1" parent="1">
          <mxGeometry x="550" y="-30" width="60" height="30" as="geometry" />
        </mxCell>
        <mxCell id="Mc5ecyZFv2LdiAkJAyB8-47" value="其他服务" style="rounded=0;whiteSpace=wrap;html=1;" vertex="1" parent="1">
          <mxGeometry x="165" y="272.5" width="120" height="60" as="geometry" />
        </mxCell>
        <mxCell id="Mc5ecyZFv2LdiAkJAyB8-49" value="写入日志" style="text;html=1;strokeColor=none;fillColor=none;align=center;verticalAlign=middle;whiteSpace=wrap;rounded=0;" vertex="1" parent="1">
          <mxGeometry x="220" y="365" width="110" height="30" as="geometry" />
        </mxCell>
        <mxCell id="Mc5ecyZFv2LdiAkJAyB8-57" value="" style="endArrow=classic;html=1;rounded=0;entryX=0.017;entryY=0.556;entryDx=0;entryDy=0;entryPerimeter=0;" edge="1" parent="1" target="Mc5ecyZFv2LdiAkJAyB8-42">
          <mxGeometry width="50" height="50" relative="1" as="geometry">
            <mxPoint x="-60" y="390" as="sourcePoint" />
            <mxPoint x="-10" y="340" as="targetPoint" />
          </mxGeometry>
        </mxCell>
        <mxCell id="Mc5ecyZFv2LdiAkJAyB8-58" value="" style="endArrow=classic;html=1;rounded=0;" edge="1" parent="1">
          <mxGeometry width="50" height="50" relative="1" as="geometry">
            <mxPoint x="70" y="400" as="sourcePoint" />
            <mxPoint x="100" y="400" as="targetPoint" />
          </mxGeometry>
        </mxCell>
        <mxCell id="Mc5ecyZFv2LdiAkJAyB8-59" value="" style="endArrow=classic;html=1;rounded=0;exitX=0.35;exitY=1.025;exitDx=0;exitDy=0;entryX=0.267;entryY=0;entryDx=0;entryDy=0;entryPerimeter=0;exitPerimeter=0;" edge="1" parent="1" source="Mc5ecyZFv2LdiAkJAyB8-47" target="Mc5ecyZFv2LdiAkJAyB8-6">
          <mxGeometry width="50" height="50" relative="1" as="geometry">
            <mxPoint x="250" y="410" as="sourcePoint" />
            <mxPoint x="300" y="360" as="targetPoint" />
          </mxGeometry>
        </mxCell>
      </root>
    </mxGraphModel>
  </diagram>
</mxfile>
